<svg width="41" height="41" viewBox="0 0 41 41" fill="none" xmlns="http://www.w3.org/2000/svg">
<path d="M36.969 21.5328C36.969 19.4661 35.2857 17.7828 33.219 17.7828H31.2357L30.6357 16.2828C30.1857 15.1661 29.119 14.4495 27.9357 14.4495H27.2857C27.519 12.6661 27.1857 11.1661 26.919 10.3161C26.7857 9.91613 26.469 9.59946 26.069 9.49946C25.0023 9.19946 24.0357 8.71613 23.169 8.04946C22.6357 7.6328 22.1523 7.14946 21.719 6.59946C21.2523 5.9828 20.219 5.9828 19.7523 6.59946C19.3357 7.14946 18.8357 7.6328 18.3023 8.04946C17.4523 8.71613 16.469 9.19946 15.4023 9.49946C15.0023 9.61613 14.669 9.91613 14.5523 10.3161C14.2857 11.1661 13.9357 12.6661 14.1857 14.4495H13.5357C12.3357 14.4495 11.269 15.1661 10.8357 16.2828L10.2357 17.7828H8.25232C6.18565 17.7828 4.50232 19.4661 4.50232 21.5328C4.50232 23.4661 5.96899 25.0328 7.83565 25.2328V33.1995C7.83565 35.2661 9.51899 36.9495 11.5857 36.9495C13.6523 36.9495 15.3357 35.2661 15.3357 33.1995V31.9495H26.169V33.1995C26.169 35.2661 27.8523 36.9495 29.919 36.9495C31.9857 36.9495 33.669 35.2661 33.669 33.1995V25.2328C35.5357 25.0161 37.0023 23.4495 37.0023 21.5328H36.969ZM31.1357 29.4495H10.3023V25.2828H31.1357V29.4495ZM16.7357 11.6828C17.8523 11.2995 18.8857 10.7328 19.819 10.0161C20.1357 9.76613 20.4357 9.51613 20.719 9.2328C21.0023 9.51613 21.3023 9.76613 21.619 10.0161C22.5523 10.7328 23.5857 11.2995 24.7023 11.6828C24.9023 12.5661 25.019 13.8828 24.5357 15.2995C23.719 17.7161 21.6857 18.8995 20.719 19.3495C19.7523 18.8995 17.719 17.7161 16.9023 15.2995C16.419 13.8828 16.5357 12.5661 16.7357 11.6828ZM13.5023 16.9495H14.9023C16.4523 20.2828 19.619 21.6328 20.2857 21.8661C20.419 21.9161 20.569 21.9495 20.719 21.9495C20.869 21.9495 21.0023 21.9161 21.1523 21.8661C21.819 21.6161 24.9857 20.2661 26.5357 16.9495H27.919C28.0857 16.9495 28.2357 17.0495 28.3023 17.2161L30.5357 22.7828H10.9023L13.1357 17.2161C13.2023 17.0495 13.3523 16.9495 13.519 16.9495H13.5023ZM6.95232 21.5328C6.95232 20.8495 7.51899 20.2828 8.20232 20.2828H9.18565L8.18565 22.7828C7.50232 22.7828 6.95232 22.2161 6.95232 21.5328ZM12.7857 33.1995C12.7857 33.8828 12.219 34.4495 11.5357 34.4495C10.8523 34.4495 10.2857 33.8828 10.2857 33.1995V31.9495H12.7857V33.1995ZM29.869 34.4495C29.1857 34.4495 28.619 33.8828 28.619 33.1995V31.9495H31.119V33.1995C31.119 33.8828 30.5523 34.4495 29.869 34.4495ZM33.219 22.7828L32.219 20.2828H33.2023C33.8857 20.2828 34.4523 20.8495 34.4523 21.5328C34.4523 22.2161 33.9023 22.7661 33.219 22.7828Z" fill="#002E6B"/>
<path d="M14.0522 28.6162H15.7189C16.4022 28.6162 16.9689 28.0495 16.9689 27.3662C16.9689 26.6829 16.4022 26.1162 15.7189 26.1162H14.0522C13.3689 26.1162 12.8022 26.6829 12.8022 27.3662C12.8022 28.0495 13.3689 28.6162 14.0522 28.6162Z" fill="#002E6B"/>
<path d="M25.7189 28.6162H27.3856C28.0689 28.6162 28.6356 28.0495 28.6356 27.3662C28.6356 26.6829 28.0689 26.1162 27.3856 26.1162H25.7189C25.0356 26.1162 24.4689 26.6829 24.4689 27.3662C24.4689 28.0495 25.0356 28.6162 25.7189 28.6162Z" fill="#002E6B"/>
<path d="M19.0856 16.583C19.3356 16.833 19.6522 16.9497 19.9689 16.9497C20.2856 16.9497 20.6022 16.833 20.8522 16.583L23.2856 14.1497C23.7689 13.6663 23.7689 12.8663 23.2856 12.383C22.8022 11.8997 22.0022 11.8997 21.5189 12.383L19.9689 13.933L19.9356 13.8997C19.4522 13.4163 18.6522 13.4163 18.1689 13.8997C17.6856 14.383 17.6856 15.183 18.1689 15.6663L19.0856 16.583Z" fill="#002E6B"/>
</svg>
