<svg width="41" height="41" viewBox="0 0 41 41" fill="none" xmlns="http://www.w3.org/2000/svg">
<path d="M20.8207 4.44995C13.4541 4.44995 7.90405 7.13328 7.90405 10.7V29.8666C7.90405 33.8333 13.5707 36.95 20.8207 36.95C28.0707 36.95 33.7374 33.8333 33.7374 29.8666V10.7C33.7374 7.13328 28.1874 4.44995 20.8207 4.44995ZM31.2374 23.2C31.2374 25.3666 26.9541 27.7833 20.8207 27.7833C14.6874 27.7833 10.4041 25.3666 10.4041 23.2V20.75C12.7374 22.5 16.4874 23.6166 20.8207 23.6166C25.1541 23.6166 28.9041 22.5 31.2374 20.75V23.2ZM31.2374 16.5333C31.2374 18.7 26.9541 21.1166 20.8207 21.1166C14.6874 21.1166 10.4041 18.7 10.4041 16.5333V14.4833C12.7207 16 16.4374 16.95 20.8207 16.95C25.2041 16.95 28.9207 16 31.2374 14.4833V16.5333ZM20.8207 6.94995C27.1874 6.94995 31.2374 9.16662 31.2374 10.7C31.2374 12.2333 27.1874 14.45 20.8207 14.45C14.4541 14.45 10.4041 12.2333 10.4041 10.7C10.4041 9.16662 14.4541 6.94995 20.8207 6.94995ZM20.8207 34.45C14.6874 34.45 10.4041 32.0333 10.4041 29.8666V27.4166C12.7374 29.1666 16.4874 30.2833 20.8207 30.2833C25.1541 30.2833 28.9041 29.1666 31.2374 27.4166V29.8666C31.2374 32.0333 26.9541 34.45 20.8207 34.45Z" fill="#002E6B"/>
</svg>
