<svg width="41" height="41" viewBox="0 0 41 41" fill="none" xmlns="http://www.w3.org/2000/svg">
<path d="M35.9506 27.9662L24.5506 8.19953C23.2839 6.0162 20.4839 5.24953 18.2839 6.5162C17.4172 7.0162 16.7672 7.7662 16.3839 8.6662L5.00058 28.3995C4.38391 29.4662 4.23391 30.6995 4.53391 31.8829C4.85058 33.0662 5.61724 34.0495 6.66724 34.6662C7.38391 35.0829 8.16724 35.2829 8.95058 35.2829H32.2839C34.8172 35.2829 36.8672 33.2329 36.8672 30.6995C36.8672 29.6662 36.5172 28.7329 35.9506 27.9662ZM22.3672 9.44953L31.9839 26.1162H27.1672L18.7506 11.5329C18.4672 11.0495 18.4006 10.4829 18.5506 9.94953C18.5839 9.83286 18.6672 9.73286 18.7172 9.6162L18.8172 9.43286C18.8172 9.43286 18.8339 9.36619 18.8506 9.33286C19.0339 9.0662 19.2506 8.83286 19.5339 8.6662C20.5339 8.08286 21.8006 8.43286 22.3839 9.43286L22.3672 9.44953ZM24.2839 26.1162H16.8839L20.5839 19.6995L24.2839 26.1162ZM6.93391 31.2329C6.78391 30.6995 6.86724 30.1329 7.13391 29.6495L16.7339 13.0329L19.1339 17.1995L10.7339 31.7329C10.1672 32.7329 8.88391 33.0662 7.88391 32.4995C7.40058 32.2162 7.05058 31.7662 6.91724 31.2329H6.93391ZM32.2839 32.7829H13.0339L15.4339 28.6162H32.2672C33.4172 28.6162 34.3506 29.5495 34.3506 30.6995C34.3506 31.8495 33.4172 32.7829 32.2672 32.7829H32.2839Z" fill="#002E6B"/>
</svg>
