<svg width="41" height="41" viewBox="0 0 41 41" fill="none" xmlns="http://www.w3.org/2000/svg">
<path d="M32.1822 12.7832H30.8488L21.6822 7.5499C19.8988 6.53323 17.6322 6.83323 16.1655 8.28323L11.6655 12.7832H10.5155C7.98217 12.7832 5.93217 14.8332 5.93217 17.3666V19.4499H5.5155C4.83217 19.4499 4.2655 20.0166 4.2655 20.6999V25.6999C4.2655 26.3832 4.83217 26.9499 5.5155 26.9499H5.93217V29.0332C5.93217 31.5666 7.98217 33.6166 10.5155 33.6166H32.1822C34.7155 33.6166 36.7655 31.5666 36.7655 29.0332V17.3666C36.7655 14.8332 34.7155 12.7832 32.1822 12.7832ZM17.9322 10.0499C18.5988 9.38323 19.6322 9.2499 20.4322 9.71656L25.7988 12.7832H15.1822L17.9155 10.0499H17.9322ZM6.7655 24.4499V21.9499H10.9322V24.4499H6.7655ZM34.2655 29.0332C34.2655 30.1832 33.3322 31.1166 32.1822 31.1166H10.5155C9.3655 31.1166 8.43217 30.1832 8.43217 29.0332V26.9499H11.3488C12.4988 26.9499 13.4322 26.0166 13.4322 24.8666V21.5332C13.4322 20.3832 12.4988 19.4499 11.3488 19.4499H8.43217V17.3666C8.43217 16.2166 9.3655 15.2832 10.5155 15.2832H32.1822C33.3322 15.2832 34.2655 16.2166 34.2655 17.3666V29.0332Z" fill="#002E6B"/>
</svg>
