<svg width="41" height="41" viewBox="0 0 41 41" fill="none" xmlns="http://www.w3.org/2000/svg">
<path d="M20.7036 4.44995C11.7369 4.44995 4.45361 11.7333 4.45361 20.7C4.45361 29.6666 11.7369 36.95 20.7036 36.95C29.6703 36.95 36.9536 29.6666 36.9536 20.7C36.9536 11.7333 29.6703 4.44995 20.7036 4.44995ZM20.7036 34.45C13.1203 34.45 6.95361 28.2833 6.95361 20.7C6.95361 13.1166 13.1203 6.94995 20.7036 6.94995C28.2869 6.94995 34.4536 13.1166 34.4536 20.7C34.4536 28.2833 28.2869 34.45 20.7036 34.45Z" fill="#002E6B"/>
<path d="M30.4703 23.2999C30.4703 23.2999 30.4703 23.2999 30.4536 23.2999C30.4369 23.2999 30.4536 23.2999 30.4369 23.2999C27.7369 21.9499 24.4703 22.6999 22.9869 25.0499C21.9369 26.6999 21.9536 28.8832 23.0203 30.7499C23.0203 30.7665 23.0536 30.7665 23.0536 30.7832C23.1536 30.9499 23.2869 31.0832 23.4536 31.1832C23.4869 31.1999 23.5036 31.2165 23.5369 31.2332C23.7036 31.3165 23.9036 31.3832 24.1036 31.3832C24.2369 31.3832 24.3869 31.3665 24.5203 31.3165C27.5203 30.2332 29.9369 27.9165 31.1369 24.9332C31.3869 24.2999 31.0869 23.5832 30.4703 23.3165V23.2999ZM24.8036 28.3832C24.6703 27.6499 24.7369 26.9332 25.1036 26.3665C25.7036 25.4165 26.9536 24.9665 28.2036 25.1499C27.3869 26.5165 26.2203 27.6332 24.8036 28.3832Z" fill="#002E6B"/>
<path d="M31.7536 19.3166C31.7536 19.3166 31.7703 19.15 31.787 19.0666C31.787 18.9833 31.8036 18.9 31.787 18.8166C31.787 18.8 31.787 18.7833 31.787 18.7666C30.8536 13.3666 26.187 9.44995 20.7036 9.44995C15.2203 9.44995 10.5536 13.3666 9.6203 18.7666C9.6203 18.7833 9.6203 18.8 9.6203 18.8166C9.6203 18.9 9.6203 18.9833 9.6203 19.0666C9.6203 19.15 9.6203 19.2333 9.65363 19.3166C9.65363 19.3333 9.65363 19.35 9.65363 19.3666C9.6703 19.4166 9.7203 19.4666 9.73697 19.5166C9.7703 19.6 9.80363 19.6666 9.8703 19.7333C9.9203 19.8 9.98697 19.85 10.037 19.9C10.1036 19.95 10.1536 20 10.2203 20.0333C10.3036 20.0833 10.387 20.1 10.4703 20.1333C10.5203 20.1333 10.5703 20.1833 10.6203 20.1833C10.637 20.1833 10.6536 20.1833 10.6703 20.1833C10.7536 20.1833 10.837 20.1833 10.9203 20.1833C11.0036 20.1833 11.087 20.1833 11.1703 20.15C11.187 20.15 11.2036 20.15 11.2203 20.15C17.3203 18.0833 24.0203 18.0833 30.1203 20.15C30.2536 20.2 30.3703 20.2166 30.5036 20.2166C30.5036 20.2166 30.5036 20.2166 30.5203 20.2166C30.587 20.2166 30.6536 20.2166 30.737 20.2C30.7536 20.2 30.7703 20.1833 30.8036 20.1833C30.9203 20.15 31.0203 20.1166 31.1203 20.0666C31.1536 20.05 31.187 20.0333 31.2203 20.0166C31.337 19.9333 31.4536 19.8333 31.537 19.7166C31.5536 19.6833 31.5703 19.65 31.587 19.6166C31.637 19.5333 31.687 19.4666 31.7203 19.3833C31.7203 19.3666 31.7203 19.35 31.7203 19.3333L31.7536 19.3166ZM12.7536 17.1166C14.137 14.0333 17.187 11.9333 20.7203 11.9333C24.2536 11.9333 27.3036 14.0333 28.687 17.1166C23.487 15.7833 17.9703 15.7833 12.7703 17.1166H12.7536Z" fill="#002E6B"/>
<path d="M10.8203 23.2666C10.2703 23.5666 10.037 24.2166 10.2536 24.8C10.2536 24.8333 10.2536 24.8833 10.2703 24.9166C11.4203 27.7666 13.737 30.05 16.6036 31.1833C16.6036 31.1833 16.637 31.1833 16.6536 31.1833C16.787 31.2333 16.9203 31.2666 17.0703 31.2666C17.2536 31.2666 17.437 31.2166 17.6036 31.1333C17.637 31.1333 17.6703 31.1 17.7036 31.0833C17.8536 31 17.987 30.8666 18.1036 30.7166C18.1036 30.7166 18.137 30.7 18.137 30.6833C19.3036 28.8833 19.437 26.7333 18.487 25.0666C17.0703 22.5833 13.637 21.7833 10.8536 23.25L10.8203 23.2666ZM13.1703 25.0833C14.5203 24.8666 15.7703 25.4166 16.287 26.3166C16.6036 26.8666 16.637 27.5833 16.4536 28.3C15.1036 27.5333 13.9703 26.4333 13.187 25.0833H13.1703Z" fill="#002E6B"/>
</svg>
